# xmcd
#
# Track frame offsets: 
#        150
#        47725
#        74645
#        121686
#        143561
#        181298
#        219660
#        251337
#
# Disc length: 3594 seconds
#
# Revision: 0
# Processed by: cddbd v1.5.2PL0 Copyright (c) Steve Scherf et al.
# Submitted via: ExactAudioCopy v0.99pb5
#
DISCID=710e0808
DTITLE=Cesaria Evora - Remix - Par François K. and Joe Claussel
DYEAR=1999
DGENRE=Latin
TTITLE0=Carnaval De Sao Vicente [Jazzy Carnival Mix]
TTITLE1=Carnaval De Sao Vicente [Acroostic Ambient Dub]
TTITLE2=Body and Soul Vocal Mix
TTITLE3=Bonus Beats
TTITLE4=Main Pass
TTITLE5=Body and Soul Vocal
TTITLE6=Spiritual Wave Dub
TTITLE7=Fk's Drum Mix
EXTD=
EXTT0=
EXTT1=
EXTT2=
EXTT3=
EXTT4=
EXTT5=
EXTT6=
EXTT7=
PLAYORDER=
